#!OML:ASF E:\motion texture\Top Level 1\Subject 1\Session 1\male.ASF
:FULLY-SPECIFIED
:DEGREES
229
root 22.7687 17.8267 4.56006 -125.544 -98.7769 131.276
lowerback -2.53417 0.24931 7.34039
upperback -0.658134 -0.0308531 4.62954
thorax 0.749764 -0.0640958 0.661037
lowerneck -14.8625 2.80507 -1.95694
upperneck 38.0528 3.35765 0.411574
head 15.9633 0.714829 0.98377
rclavicle 5.11871e-015 1.74931e-014
rhumerus -24.4349 -19.2065 -75.4944
rradius 21.8615
rwrist 7.15493
rhand -13.8149 -37.5696
rfingers 7.12502
rthumb 12.3076 -67.1874
lclavicle 5.11871e-015 1.74931e-014
lhumerus -22.2448 12.124 92.0907
lradius 30.0047
lwrist 3.61826
lhand -5.96833 38.5872
lfingers 7.12502
lthumb 19.8628 67.5922
rfemur -18.9504 2.0017 26.91
rtibia 17.6164
rfoot -2.09924 -10.4513
rtoes 18.3373
lfemur -13.3349 -2.36699 -9.31112
ltibia 52.5806
lfoot -0.131352 2.54432
ltoes -15.1554
230
root 22.6358 17.8389 4.53511 -126.166 -99.0522 131.763
lowerback -2.55447 0.267463 7.40876
upperback -0.700787 -0.00842195 4.64226
thorax 0.717996 -0.0547865 0.63717
lowerneck -14.8609 2.61039 -2.13405
upperneck 37.9924 3.07534 0.539743
head 15.9295 0.592711 1.02122
rclavicle -1.54058e-015 0
rhumerus -24.1541 -18.0185 -76.1434
rradius 22.4679
rwrist 6.16276
rhand -13.7632 -37.6503
rfingers 7.12502
rthumb 12.3575 -67.2651
lclavicle -1.54058e-015 0
lhumerus -21.5368 9.92794 92.9871
lradius 31.7474
lwrist 4.87155
lhand -5.7325 38.326
lfingers 7.12502
lthumb 20.0895 67.3074
rfemur -18.1981 2.02212 27.2671
rtibia 17.413
rfoot -2.40616 -10.6105
rtoes 18.4935
lfemur -14.1531 -2.23835 -9.03241
ltibia 53.1641
lfoot -0.358335 2.55813
ltoes -14.9367
231
root 22.5039 17.8502 4.51072 -126.747 -99.316 132.213
lowerback -2.57451 0.28481 7.46563
upperback -0.744783 0.0137012 4.64996
thorax 0.684681 -0.0456193 0.614469
lowerneck -14.858 2.41375 -2.31364
upperneck 37.9202 2.792 0.667252
head 15.8908 0.470121 1.05863
rclavicle 3.926e-015 -5.32743e-014
rhumerus -23.8963 -16.7964 -76.7877
rradius 23.1647
rwrist 5.13633
rhand -13.7044 -37.7179
rfingers 7.12502
rthumb 12.4141 -67.3292
lclavicle 3.926e-015 -5.32743e-014
lhumerus -20.8895 7.86442 93.7603
lradius 33.5304
lwrist 5.98645
lhand -5.48542 38.0131
lfingers 7.12502
lthumb 20.327 66.9694
rfemur -17.4551 2.03994 27.6165
rtibia 17.2086
rfoot -2.71351 -10.7713
rtoes 18.6223
lfemur -14.9635 -2.10749 -8.77333
ltibia 53.6567
lfoot -0.641738 2.59407
ltoes -14.7382
232
root 22.3729 17.8608 4.48693 -127.284 -99.5675 132.624
lowerback -2.59451 0.302 7.51213
upperback -0.78948 0.0362511 4.65283
thorax 0.650644 -0.0361966 0.592497
lowerneck -14.8547 2.21558 -2.49633
upperneck 37.8363 2.50847 0.794559
head 15.8475 0.347396 1.09646
rclavicle -1.73937e-015 -1.01778e-013
rhumerus -23.6595 -15.56 -77.4197
rradius 23.9464
rwrist 4.09204
rhand -13.638 -37.7755
rfingers 7.12502
rthumb 12.4782 -67.383
lclavicle -1.73937e-015 -1.01778e-013
lhumerus -20.2919 5.93157 94.4249
lradius 35.3442
lwrist 6.97093
lhand -5.23024 37.652
lfingers 7.12502
lthumb 20.5722 66.5819
rfemur -16.7227 2.05487 27.9579
rtibia 17.0042
rfoot -3.02097 -10.9313
rtoes 18.7266
lfemur -15.7636 -1.9746 -8.53398
ltibia 54.0552
lfoot -0.978793 2.6509
ltoes -14.5733
233
root 22.2428 17.8706 4.46382 -127.768 -99.8045 132.986
lowerback -2.61086 0.319368 7.55009
upperback -0.836812 0.0601939 4.65021
thorax 0.611897 -0.0261697 0.569596
lowerneck -14.8479 2.01673 -2.68066
upperneck 37.7416 2.22533 0.921403
head 15.7992 0.224849 1.13436
rclavicle -9.83984e-015 -4.77083e-015
rhumerus -23.4474 -14.3334 -78.0305
rradius 24.7982
rwrist 3.04505
rhand -13.5685 -37.7114
rfingers 7.12502
rthumb 12.5452 -67.3148
lclavicle -9.83984e-015 -4.77083e-015
lhumerus -19.7402 4.12751 94.991
lradius 37.1785
lwrist 7.83274
lhand -4.97473 37.2288
lfingers 7.12502
lthumb 20.8177 66.132
rfemur -16.0009 2.06748 28.2906
rtibia 16.8011
rfoot -3.32846 -11.0895
rtoes 18.8
lfemur -16.5495 -1.83892 -8.31459
ltibia 54.3572
lfoot -1.36409 2.72685
ltoes -14.4362
234
root 22.1135 17.8796 4.44139 -128.2 -100.026 133.301
lowerback -2.62659 0.337669 7.57867
upperback -0.885719 0.0860857 4.6429
thorax 0.571259 -0.0151791 0.547073
lowerneck -14.8374 1.81729 -2.86691
upperneck 37.6355 1.94311 1.04728
head 15.7459 0.102612 1.17227
rclavicle -1.88845e-015 -1.82882e-014
rhumerus -23.2554 -13.1213 -78.62
rradius 25.7253
rwrist 2.00285
rhand -13.4971 -37.6427
rfingers 7.12502
rthumb 12.614 -67.2418
lclavicle -1.88845e-015 -1.82882e-014
lhumerus -19.2272 2.44713 95.4714
lradius 39.0248
lwrist 8.58059
lhand -4.71892 36.7491
lfingers 7.12502
lthumb 21.0635 65.6251
rfemur -15.2915 2.07766 28.6142
rtibia 16.602
rfoot -3.63847 -11.2454
rtoes 18.8425
lfemur -17.3205 -1.70014 -8.11506
ltibia 54.5636
lfoot -1.79196 2.82087
ltoes -14.3276
235
root 21.985 17.8878 4.41969 -128.58 -100.231 133.568
lowerback -2.64065 0.357292 7.59944
upperback -0.93482 0.114391 4.63103
thorax 0.529611 -0.00294613 0.524218
lowerneck -14.8268 1.61767 -3.05302
upperneck 37.5176 1.66339 1.16897
head 15.6881 -0.0187594 1.20876
rclavicle -2.16427e-014 -1.43125e-014
rhumerus -23.08 -11.94 -79.1844
rradius 26.7216
rwrist 0.975796
rhand -13.406 -37.5767
rfingers 7.12502
rthumb 12.7018 -67.1704
lclavicle -2.16427e-014 -1.43125e-014
lhumerus -18.746 0.884477 95.8764
lradius 40.872
lwrist 9.21989
lhand -4.45955 36.2293
lfingers 7.12502
lthumb 21.3126 65.0774
rfemur -14.5907 2.08813 28.9282
rtibia 16.4034
rfoot -3.95048 -11.3994
rtoes 18.8569
lfemur -18.072 -1.55945 -7.93496
ltibia 54.6705
lfoot -2.25571 2.93124
ltoes -14.2455
236
root 21.8573 17.8953 4.39876 -128.899 -100.417 133.78
lowerback -2.65333 0.377986 7.61199
upperback -0.985943 0.144855 4.61506
thorax 0.4852 0.0103145 0.501694
lowerneck -14.8113 1.41912 -3.23918
upperneck 37.3893 1.38659 1.28906
head 15.6255 -0.138915 1.24495
rclavicle -1.10574e-014 -3.73715e-014
rhumerus -22.918 -10.7856 -79.726
rradius 27.7847
rwrist -0.0324674
rhand -13.3113 -37.6119
rfingers 7.12502
rthumb 12.7931 -67.1999
lclavicle -1.10574e-014 -3.73715e-014
lhumerus -18.296 -0.561068 96.213
lradius 42.7112
lwrist 9.75541
lhand -4.1997 35.6797
lfingers 7.12502
lthumb 21.5622 64.4994
rfemur -13.9058 2.09478 29.2322
rtibia 16.214
rfoot -4.26593 -11.5428
rtoes 18.835
lfemur -18.8054 -1.41475 -7.77406
ltibia 54.6805
lfoot -2.74732 3.05796
ltoes -14.1915
237
root 21.7303 17.902 4.3786 -129.161 -100.584 133.941
lowerback -2.66488 0.400846 7.61687
upperback -1.03879 0.178868 4.59459
thorax 0.438554 0.0253216 0.478864
lowerneck -14.7917 1.22128 -3.42496
upperneck 37.2515 1.11235 1.40672
head 15.5586 -0.258074 1.2804
rclavicle -1.14301e-014 2.38542e-014
rhumerus -22.7683 -9.66599 -80.2439
rradius 28.9036
rwrist -1.03856
rhand -13.2328 -37.6662
rfingers 7.12502
rthumb 12.8688 -67.2495
lclavicle -1.14301e-014 2.38542e-014
lhumerus -17.8747 -1.89902 96.4902
lradius 44.5322
lwrist 10.1956
lhand -3.94587 35.1044
lfingers 7.12502
lthumb 21.8059 63.8959
rfemur -13.2349 2.10081 29.5252
rtibia 16.0316
rfoot -4.58418 -11.6763
rtoes 18.7849
lfemur -19.5181 -1.26672 -7.63225
ltibia 54.5919
lfoot -3.25754 3.20223
ltoes -14.1669
238
root 21.604 17.9079 4.35926 -129.365 -100.731 134.05
lowerback -2.67639 0.425459 7.61491
upperback -1.09242 0.215618 4.57007
thorax 0.391227 0.0417225 0.455677
lowerneck -14.7697 1.0254 -3.61051
upperneck 37.1045 0.842448 1.52277
head 15.488 -0.37542 1.3158
rclavicle -2.09469e-014 2.38542e-014
rhumerus -22.6253 -8.60392 -80.7307
rradius 30.0594
rwrist -2.00001
rhand -13.1252 -37.6597
rfingers 7.12502
rthumb 12.9725 -67.2364
lclavicle -2.09469e-014 2.38542e-014
lhumerus -17.4792 -3.13372 96.7145
lradius 46.3276
lwrist 10.5478
lhand -3.70159 34.5117
lfingers 7.12502
lthumb 22.0405 63.2757
rfemur -12.5774 2.10792 29.8069
rtibia 15.8559
rfoot -4.9052 -11.8001
rtoes 18.711
lfemur -20.2081 -1.11534 -7.50851
ltibia 54.4047
lfoot -3.77902 3.36327
ltoes -14.1699
